  0
SECTION
  2
HEADER
  9
$ACADVER
  1
AC1003
  9
$EXTMIN
 10
0.282253769966051
 20
1.96983323094465
  9
$EXTMAX
 10
2.75458108442274
 20
0.276919845117877
  9
$INSUNITS
 70
1
  9
$INSBASE
 10
1.5184174271944
 20
1.12337653803126
999
Created with OMAX LAYOUT for Windows. (www.omax.com) 1/18/2023
  0
ENDSEC
  0
SECTION
  2
TABLES
  0
TABLE
  2
LAYER
 70
    10
  0
LAYER
  2
0
 70
     0
 62
     7
  6
CONTINUOUS
  0
LAYER
  2
1
 70
     0
 62
     7
  6
CONTINUOUS
  0
LAYER
  2
2
 70
     0
 62
     7
  6
CONTINUOUS
  0
LAYER
  2
3
 70
     0
 62
     7
  6
CONTINUOUS
  0
LAYER
  2
4
 70
     0
 62
     7
  6
CONTINUOUS
  0
LAYER
  2
5
 70
     0
 62
     7
  6
CONTINUOUS
  0
LAYER
  2
6
 70
     0
 62
     7
  6
CONTINUOUS
  0
LAYER
  2
7
 70
     0
 62
     7
  6
CONTINUOUS
  0
LAYER
  2
8
 70
     0
 62
     7
  6
CONTINUOUS
  0
LAYER
  2
9
 70
     0
 62
     7
  6
CONTINUOUS
  0
LAYER
  2
10
 70
     0
 62
     7
  6
CONTINUOUS
  0
LAYER
  2
11
 70
     0
 62
     7
  6
CONTINUOUS
  0
LAYER
  2
12
 70
     0
 62
     7
  6
CONTINUOUS
  0
LAYER
  2
13
 70
     0
 62
     7
  6
CONTINUOUS
  0
LAYER
  2
14
 70
     0
 62
     7
  6
CONTINUOUS
  0
LAYER
  2
15
 70
     0
 62
     7
  6
CONTINUOUS
  0
LAYER
  2
16
 70
     0
 62
     7
  6
CONTINUOUS
  0
LAYER
  2
17
 70
     0
 62
     7
  6
CONTINUOUS
  0
LAYER
  2
18
 70
     0
 62
     7
  6
CONTINUOUS
  0
LAYER
  2
19
 70
     0
 62
     7
  6
CONTINUOUS
  0
LAYER
  2
20
 70
     0
 62
     7
  6
CONTINUOUS
  0
LAYER
  2
21
 70
     0
 62
     7
  6
CONTINUOUS
  0
LAYER
  2
22
 70
     0
 62
     7
  6
CONTINUOUS
  0
LAYER
  2
23
 70
     0
 62
     7
  6
CONTINUOUS
  0
LAYER
  2
24
 70
     0
 62
     7
  6
CONTINUOUS
  0
LAYER
  2
25
 70
     0
 62
     7
  6
CONTINUOUS
  0
LAYER
  2
26
 70
     0
 62
     7
  6
CONTINUOUS
  0
LAYER
  2
27
 70
     0
 62
     7
  6
CONTINUOUS
  0
LAYER
  2
28
 70
     0
 62
     7
  6
CONTINUOUS
  0
LAYER
  2
29
 70
     0
 62
     7
  6
CONTINUOUS
  0
LAYER
  2
30
 70
     0
 62
     7
  6
CONTINUOUS
  0
LAYER
  2
31
 70
     0
 62
     7
  6
CONTINUOUS
  0
ENDTAB
  0
ENDSEC
  0
SECTION
  2
ENTITIES
  0
ARC
  8
0
  6
CONTINUOUS
 62
0
 10
1.5184174271944
 20
1.12337653803125
 30
0.0
 40
0.866141732283463
 50
204.449363995199
 51
257.472094560099
  0
ARC
  8
0
  6
CONTINUOUS
 62
0
 10
1.33907818350936
 20
0.316289923858032
 30
0.0
 40
0.0393700787401551
 50
257.472094560098
 51
269.999999999998
  0
LINE
  8
0
  6
CONTINUOUS
 62
0
 10
1.33907818350935
 20
0.276919845117877
 30
0.0
 11
1.69775667087944
 21
0.276919845117877
 31
0.0
  0
ARC
  8
0
  6
CONTINUOUS
 62
0
 10
1.69775667087944
 20
0.316289923858033
 30
0.0
 40
0.0393700787401552
 50
270.000000000001
 51
282.527905439901
  0
ARC
  8
0
  6
CONTINUOUS
 62
0
 10
1.5184174271944
 20
1.12337653803126
 30
0.0
 40
0.866141732283463
 50
282.5279054399
 51
335.5506360048
  0
ARC
  8
0
  6
CONTINUOUS
 62
0
 10
2.4860882927377
 20
0.683415908110005
 30
0.0
 40
0.196850393700783
 50
90.0000000000001
 51
155.5506360048
  0
LINE
  8
0
  6
CONTINUOUS
 62
0
 10
2.71521100568259
 20
0.880266301810789
 30
0.0
 11
2.4860882927377
 21
0.880266301810789
 31
0.0
  0
ARC
  8
0
  6
CONTINUOUS
 62
0
 10
2.71521100568259
 20
0.919636380550946
 30
0.0
 40
0.0393700787401574
 50
270.000000000002
 51
2.38541601109764E-12
  0
LINE
  8
0
  6
CONTINUOUS
 62
0
 10
2.75458108442274
 20
1.32711669551158
 30
0.0
 11
2.75458108442274
 21
0.919636380550948
 31
0.0
  0
ARC
  8
0
  6
CONTINUOUS
 62
0
 10
2.71521100568259
 20
1.32711669551158
 30
0.0
 40
0.0393700787401574
 50
359.999999999997
 51
89.9999999999972
  0
LINE
  8
0
  6
CONTINUOUS
 62
0
 10
2.4860882927377
 20
1.36648677425174
 30
0.0
 11
2.71521100568259
 21
1.36648677425174
 31
0.0
  0
ARC
  8
0
  6
CONTINUOUS
 62
0
 10
2.4860882927377
 20
1.56333716795252
 30
0.0
 40
0.196850393700783
 50
204.449363995199
 51
269.999999999999
  0
ARC
  8
0
  6
CONTINUOUS
 62
0
 10
1.5184174271944
 20
1.12337653803127
 30
0.0
 40
0.866141732283463
 50
24.4493639951996
 51
77.4720945600996
  0
ARC
  8
0
  6
CONTINUOUS
 62
0
 10
1.69775667087944
 20
1.93046315220449
 30
0.0
 40
0.0393700787401551
 50
77.4720945600987
 51
89.9999999999988
  0
LINE
  8
0
  6
CONTINUOUS
 62
0
 10
1.69775667087944
 20
1.96983323094465
 30
0.0
 11
1.33907818350935
 21
1.96983323094465
 31
0.0
  0
ARC
  8
0
  6
CONTINUOUS
 62
0
 10
1.33907818350935
 20
1.93046315220449
 30
0.0
 40
0.0393700787401552
 50
90.0000000000009
 51
102.527905439901
  0
ARC
  8
0
  6
CONTINUOUS
 62
0
 10
1.51841742719439
 20
1.12337653803126
 30
0.0
 40
0.866141732283463
 50
102.5279054399
 51
155.5506360048
  0
ARC
  8
0
  6
CONTINUOUS
 62
0
 10
0.550746561651093
 20
1.56333716795253
 30
0.0
 40
0.196850393700789
 50
269.999999999999
 51
335.550636004799
  0
LINE
  8
0
  6
CONTINUOUS
 62
0
 10
0.550746561651088
 20
1.36648677425174
 30
0.0
 11
0.321623848706206
 21
1.36648677425174
 31
0.0
  0
ARC
  8
0
  6
CONTINUOUS
 62
0
 10
0.321623848706208
 20
1.32711669551158
 30
0.0
 40
0.0393700787401574
 50
90.0000000000024
 51
180.000000000002
  0
LINE
  8
0
  6
CONTINUOUS
 62
0
 10
0.282253769966051
 20
1.32711669551158
 30
0.0
 11
0.282253769966051
 21
0.919636380550948
 31
0.0
  0
ARC
  8
0
  6
CONTINUOUS
 62
0
 10
0.321623848706208
 20
0.919636380550946
 30
0.0
 40
0.0393700787401574
 50
179.999999999997
 51
269.999999999997
  0
LINE
  8
0
  6
CONTINUOUS
 62
0
 10
0.321623848706206
 20
0.880266301810789
 30
0.0
 11
0.550746561651088
 21
0.880266301810789
 31
0.0
  0
ARC
  8
0
  6
CONTINUOUS
 62
0
 10
0.550746561651091
 20
0.68341590811
 30
0.0
 40
0.196850393700789
 50
24.4493639952006
 51
90.0000000000005
  0
ARC
  8
0
  6
CONTINUOUS
 62
0
 10
1.5184174271944
 20
1.12337653803126
 30
0.0
 40
0.748031496062991
 50
283.1735511073
 51
76.8264488927
  0
LINE
  8
0
  6
CONTINUOUS
 62
0
 10
1.34793998550542
 20
0.395030081338348
 30
0.0
 11
1.68889486888337
 21
0.395030081338348
 31
0.0
  0
ARC
  8
0
  6
CONTINUOUS
 62
0
 10
1.5184174271944
 20
1.12337653803126
 30
0.0
 40
0.748031496062991
 50
103.1735511073
 51
256.8264488927
  0
LINE
  8
0
  6
CONTINUOUS
 62
0
 10
1.68889486888337
 20
1.85172299472418
 30
0.0
 11
1.34793998550542
 21
1.85172299472418
 31
0.0
  0
LINE
  8
0
  6
CONTINUOUS
 62
0
 10
0.400364006186521
 20
1.24837653803126
 30
0.0
 11
0.400364006186521
 21
0.998376538031263
 31
0.0
  0
LINE
  8
0
  6
CONTINUOUS
 62
0
 10
0.59721439988731
 20
1.24837653803126
 30
0.0
 11
0.400364006186521
 21
1.24837653803126
 31
0.0
  0
LINE
  8
0
  6
CONTINUOUS
 62
0
 10
0.59721439988731
 20
0.998376538031263
 30
0.0
 11
0.59721439988731
 21
1.24837653803126
 31
0.0
  0
LINE
  8
0
  6
CONTINUOUS
 62
0
 10
0.400364006186521
 20
0.998376538031263
 30
0.0
 11
0.59721439988731
 21
0.998376538031263
 31
0.0
  0
LINE
  8
0
  6
CONTINUOUS
 62
0
 10
2.43962045450148
 20
1.24837653803126
 30
0.0
 11
2.63647084820227
 21
1.24837653803126
 31
0.0
  0
LINE
  8
0
  6
CONTINUOUS
 62
0
 10
2.63647084820227
 20
1.24837653803126
 30
0.0
 11
2.63647084820227
 21
0.998376538031263
 31
0.0
  0
LINE
  8
0
  6
CONTINUOUS
 62
0
 10
2.63647084820227
 20
0.998376538031263
 30
0.0
 11
2.43962045450148
 21
0.998376538031263
 31
0.0
  0
LINE
  8
0
  6
CONTINUOUS
 62
0
 10
2.43962045450148
 20
0.998376538031263
 30
0.0
 11
2.43962045450148
 21
1.24837653803126
 31
0.0
  0
ENDSEC
  0
EOF
