  0
SECTION
  2
HEADER
  9
$ACADVER
  1
AC1003
  9
$EXTMIN
 10
0.124641733937664
 20
2.24982835390437
  9
$EXTMAX
 10
5.52247847873647
 20
0
  9
$INSUNITS
 70
1
  9
$INSBASE
 10
2.82356010633706
 20
1.12491417695218
999
Created with OMAX LAYOUT for Windows. (www.omax.com) 1/18/2023
  0
ENDSEC
  0
SECTION
  2
TABLES
  0
TABLE
  2
LAYER
 70
    10
  0
LAYER
  2
0
 70
     0
 62
     7
  6
CONTINUOUS
  0
LAYER
  2
1
 70
     0
 62
     7
  6
CONTINUOUS
  0
LAYER
  2
2
 70
     0
 62
     7
  6
CONTINUOUS
  0
LAYER
  2
3
 70
     0
 62
     7
  6
CONTINUOUS
  0
LAYER
  2
4
 70
     0
 62
     7
  6
CONTINUOUS
  0
LAYER
  2
5
 70
     0
 62
     7
  6
CONTINUOUS
  0
LAYER
  2
6
 70
     0
 62
     7
  6
CONTINUOUS
  0
LAYER
  2
7
 70
     0
 62
     7
  6
CONTINUOUS
  0
LAYER
  2
8
 70
     0
 62
     7
  6
CONTINUOUS
  0
LAYER
  2
9
 70
     0
 62
     7
  6
CONTINUOUS
  0
LAYER
  2
10
 70
     0
 62
     7
  6
CONTINUOUS
  0
LAYER
  2
11
 70
     0
 62
     7
  6
CONTINUOUS
  0
LAYER
  2
12
 70
     0
 62
     7
  6
CONTINUOUS
  0
LAYER
  2
13
 70
     0
 62
     7
  6
CONTINUOUS
  0
LAYER
  2
14
 70
     0
 62
     7
  6
CONTINUOUS
  0
LAYER
  2
15
 70
     0
 62
     7
  6
CONTINUOUS
  0
LAYER
  2
16
 70
     0
 62
     7
  6
CONTINUOUS
  0
LAYER
  2
17
 70
     0
 62
     7
  6
CONTINUOUS
  0
LAYER
  2
18
 70
     0
 62
     7
  6
CONTINUOUS
  0
LAYER
  2
19
 70
     0
 62
     7
  6
CONTINUOUS
  0
LAYER
  2
20
 70
     0
 62
     7
  6
CONTINUOUS
  0
LAYER
  2
21
 70
     0
 62
     7
  6
CONTINUOUS
  0
LAYER
  2
22
 70
     0
 62
     7
  6
CONTINUOUS
  0
LAYER
  2
23
 70
     0
 62
     7
  6
CONTINUOUS
  0
LAYER
  2
24
 70
     0
 62
     7
  6
CONTINUOUS
  0
LAYER
  2
25
 70
     0
 62
     7
  6
CONTINUOUS
  0
LAYER
  2
26
 70
     0
 62
     7
  6
CONTINUOUS
  0
LAYER
  2
27
 70
     0
 62
     7
  6
CONTINUOUS
  0
LAYER
  2
28
 70
     0
 62
     7
  6
CONTINUOUS
  0
LAYER
  2
29
 70
     0
 62
     7
  6
CONTINUOUS
  0
LAYER
  2
30
 70
     0
 62
     7
  6
CONTINUOUS
  0
LAYER
  2
31
 70
     0
 62
     7
  6
CONTINUOUS
  0
ENDTAB
  0
ENDSEC
  0
SECTION
  2
ENTITIES
  0
LINE
  8
0
  6
CONTINUOUS
 62
0
 10
0.25
 20
0
 30
0.0
 11
5.27713170112648
 21
0.789409116334052
 31
0.0
  0
LINE
  8
0
  6
CONTINUOUS
 62
0
 10
5.20220308450784
 20
0.781775723545118
 30
0.0
 11
3.66401625593242
 21
0.655850657210774
 31
0.0
  0
LINE
  8
0
  6
CONTINUOUS
 62
0
 10
3.57254223800845
 20
0.614746112772623
 30
0.0
 11
3.23787525281152
 21
0.789409116334052
 31
0.0
  0
LINE
  8
0
  6
CONTINUOUS
 62
0
 10
3.16294663619288
 20
0.781775723545118
 30
0.0
 11
2.90507668685235
 21
0.504286085251588
 31
0.0
  0
LINE
  8
0
  6
CONTINUOUS
 62
0
 10
2.96955135114558
 20
0.581098175399557
 30
0.0
 11
3.01952572283099
 21
1.85297796020358
 31
0.0
  0
LINE
  8
0
  6
CONTINUOUS
 62
0
 10
2.96952572283099
 20
2.00297796020358
 30
0.0
 11
2.53224771223316
 21
0.893575783000718
 31
0.0
  0
LINE
  8
0
  6
CONTINUOUS
 62
0
 10
2.45731909561452
 20
0.885942390211784
 30
0.0
 11
0.440079602223529
 21
0.903504269492717
 31
0.0
  0
LINE
  8
0
  6
CONTINUOUS
 62
0
 10
0.515008218842167
 20
0.911137662281651
 30
0.0
 11
1.35064203059233
 21
1.42494591636902
 31
0.0
  0
LINE
  8
0
  6
CONTINUOUS
 62
0
 10
1.34191815311926
 20
1.52485073852721
 30
0.0
 11
1.27967417552156
 21
1.84092700386929
 31
0.0
  0
LINE
  8
0
  6
CONTINUOUS
 62
0
 10
1.29924647944084
 20
1.7425704868106
 30
0.0
 11
0.124641733937664
 21
2.19982835390437
 31
0.0
  0
LINE
  8
0
  6
CONTINUOUS
 62
0
 10
0.274641733937664
 20
2.24982835390437
 30
0.0
 11
0.124641733937664
 21
2.24982835390437
 31
0.0
  0
LINE
  8
3
  6
CONTINUOUS
 62
3
 10
5.15225067342875
 20
0.783956692913385
 30
0.0
 11
5.15225067342875
 21
0.721456692913386
 31
0.0
  0
LINE
  8
3
  6
CONTINUOUS
 62
3
 10
5.15225067342875
 20
0.721456692913386
 30
0.0
 11
5.34910106712954
 21
0.721456692913386
 31
0.0
  0
LINE
  8
3
  6
CONTINUOUS
 62
3
 10
5.34910106712954
 20
0.721456692913386
 30
0.0
 11
5.34910106712954
 21
0.971456692913383
 31
0.0
  0
LINE
  8
3
  6
CONTINUOUS
 62
3
 10
5.34910106712954
 20
0.971456692913383
 30
0.0
 11
5.15225067342875
 21
0.971456692913383
 31
0.0
  0
LINE
  8
3
  6
CONTINUOUS
 62
3
 10
5.15225067342875
 20
0.971456692913383
 30
0.0
 11
5.15225067342875
 21
0.783956692913385
 31
0.0
  0
ARC
  8
3
  6
CONTINUOUS
 62
3
 10
4.23104764607442
 20
0.846456692799003
 30
0.0
 40
0.748031495940859
 50
199.206612214412
 51
256.826448894227
  0
LINE
  8
3
  6
CONTINUOUS
 62
3
 10
4.06057020443269
 20
0.118110236220471
 30
0.0
 11
4.40152508781064
 21
0.118110236220471
 31
0.0
  0
ARC
  8
3
  6
CONTINUOUS
 62
3
 10
4.23104764612168
 20
0.846456692913384
 30
0.0
 40
0.748031496062991
 50
283.1735511073
 51
76.8264488927
  0
LINE
  8
3
  6
CONTINUOUS
 62
3
 10
4.40152508781064
 20
1.5748031496063
 30
0.0
 11
4.06057020443269
 21
1.5748031496063
 31
0.0
  0
ARC
  8
3
  6
CONTINUOUS
 62
3
 10
4.23104764612167
 20
0.846456692943998
 30
0.0
 40
0.748031496033181
 50
103.173551107834
 51
199.206612223709
  0
LINE
  8
3
  6
CONTINUOUS
 62
3
 10
3.11299422511379
 20
0.783956692913385
 30
0.0
 11
3.11299422511379
 21
0.721456692913386
 31
0.0
  0
LINE
  8
3
  6
CONTINUOUS
 62
3
 10
3.11299422511379
 20
0.721456692913386
 30
0.0
 11
3.30984461881458
 21
0.721456692913386
 31
0.0
  0
LINE
  8
3
  6
CONTINUOUS
 62
3
 10
3.30984461881458
 20
0.721456692913386
 30
0.0
 11
3.30984461881458
 21
0.971456692913383
 31
0.0
  0
LINE
  8
3
  6
CONTINUOUS
 62
3
 10
3.30984461881458
 20
0.971456692913383
 30
0.0
 11
3.11299422511379
 21
0.971456692913383
 31
0.0
  0
LINE
  8
3
  6
CONTINUOUS
 62
3
 10
3.11299422511379
 20
0.971456692913383
 30
0.0
 11
3.11299422511379
 21
0.783956692913385
 31
0.0
  0
ARC
  8
3
  6
CONTINUOUS
 62
3
 10
3.034254067628
 20
0.642716535437047
 30
0.0
 40
0.0393700787346737
 50
180.000000005786
 51
225.00000000707
  0
LINE
  8
3
  6
CONTINUOUS
 62
3
 10
2.99488398889332
 20
0.642716535433071
 30
0.0
 11
2.99488398889332
 21
1.0501968503937
 31
0.0
  0
ARC
  8
3
  6
CONTINUOUS
 62
3
 10
3.03425406763348
 20
1.0501968503937
 30
0.0
 40
0.0393700787401576
 50
90.0000000000019
 51
180.000000000002
  0
LINE
  8
3
  6
CONTINUOUS
 62
3
 10
3.03425406763348
 20
1.08956692913386
 30
0.0
 11
3.26337678057836
 21
1.08956692913386
 31
0.0
  0
ARC
  8
3
  6
CONTINUOUS
 62
3
 10
3.26337678057837
 20
1.28641732283465
 30
0.0
 40
0.196850393700789
 50
269.999999999998
 51
335.550636004798
  0
ARC
  8
3
  6
CONTINUOUS
 62
3
 10
4.23104764612166
 20
0.846456692913374
 30
0.0
 40
0.866141732283464
 50
102.5279054399
 51
155.5506360048
  0
ARC
  8
3
  6
CONTINUOUS
 62
3
 10
4.05170840243662
 20
1.65354330708661
 30
0.0
 40
0.0393700787401548
 50
90.0000000000008
 51
102.527905439901
  0
LINE
  8
3
  6
CONTINUOUS
 62
3
 10
4.05170840243662
 20
1.69291338582677
 30
0.0
 11
4.41038688980671
 21
1.69291338582677
 31
0.0
  0
ARC
  8
3
  6
CONTINUOUS
 62
3
 10
4.41038688980671
 20
1.65354330708661
 30
0.0
 40
0.0393700787401549
 50
77.4720945600972
 51
89.9999999999974
  0
ARC
  8
3
  6
CONTINUOUS
 62
3
 10
4.23104764612166
 20
0.846456692913394
 30
0.0
 40
0.866141732283464
 50
24.4493639951994
 51
77.4720945600994
  0
ARC
  8
3
  6
CONTINUOUS
 62
3
 10
5.19871851166497
 20
1.28641732283464
 30
0.0
 40
0.196850393700783
 50
204.449363995198
 51
269.999999999998
  0
LINE
  8
3
  6
CONTINUOUS
 62
3
 10
5.19871851166497
 20
1.08956692913386
 30
0.0
 11
5.42784122460986
 21
1.08956692913386
 31
0.0
  0
ARC
  8
3
  6
CONTINUOUS
 62
3
 10
5.42784122460986
 20
1.0501968503937
 30
0.0
 40
0.0393700787401575
 50
359.999999999997
 51
89.9999999999971
  0
LINE
  8
3
  6
CONTINUOUS
 62
3
 10
5.46721130335001
 20
1.0501968503937
 30
0.0
 11
5.46721130335001
 21
0.642716535433071
 31
0.0
  0
ARC
  8
3
  6
CONTINUOUS
 62
3
 10
5.42784122460986
 20
0.64271653543307
 30
0.0
 40
0.0393700787401577
 50
270.000000000001
 51
2.23995533058758E-12
  0
LINE
  8
3
  6
CONTINUOUS
 62
3
 10
5.42784122460986
 20
0.603346456692912
 30
0.0
 11
5.19871851166497
 21
0.603346456692912
 31
0.0
  0
ARC
  8
3
  6
CONTINUOUS
 62
3
 10
5.19871851166497
 20
0.406496062992128
 30
0.0
 40
0.196850393700783
 50
89.9999999999999
 51
155.5506360048
  0
ARC
  8
3
  6
CONTINUOUS
 62
3
 10
4.23104764612167
 20
0.846456692913386
 30
0.0
 40
0.866141732283463
 50
282.5279054399
 51
335.5506360048
  0
ARC
  8
3
  6
CONTINUOUS
 62
3
 10
4.41038688980671
 20
0.039370078740156
 30
0.0
 40
0.0393700787401551
 50
270.000000000001
 51
282.527905439901
  0
LINE
  8
3
  6
CONTINUOUS
 62
3
 10
4.41038688980671
 20
5.55111512312578E-17
 30
0.0
 11
4.05170840243662
 21
5.55111512312578E-17
 31
0.0
  0
ARC
  8
3
  6
CONTINUOUS
 62
3
 10
4.05170840243663
 20
0.0393700787401552
 30
0.0
 40
0.0393700787401552
 50
257.472094560098
 51
269.999999999998
  0
ARC
  8
3
  6
CONTINUOUS
 62
3
 10
4.23104764612167
 20
0.846456692913373
 30
0.0
 40
0.866141732283463
 50
204.449363995199
 51
257.472094560099
  0
ARC
  8
3
  6
CONTINUOUS
 62
3
 10
3.26337678057836
 20
0.406496062992124
 30
0.0
 40
0.196850393700789
 50
24.4493639952004
 51
90.0000000000003
  0
LINE
  8
3
  6
CONTINUOUS
 62
3
 10
3.26337678057836
 20
0.603346456692912
 30
0.0
 11
3.03425406763348
 21
0.603346456692912
 31
0.0
  0
ARC
  8
3
  6
CONTINUOUS
 62
3
 10
3.03425406764105
 20
0.642716535436268
 30
0.0
 40
0.039370078743356
 50
224.99999999283
 51
269.999999988974
  0
LINE
  8
3
  6
CONTINUOUS
 62
3
 10
3.01952572283099
 20
2.00297796020358
 30
0.0
 11
3.01952572283099
 21
2.19982835390437
 31
0.0
  0
LINE
  8
3
  6
CONTINUOUS
 62
3
 10
3.01952572283099
 20
2.19982835390437
 30
0.0
 11
5.52247847873647
 21
2.19982835390437
 31
0.0
  0
LINE
  8
3
  6
CONTINUOUS
 62
3
 10
5.52247847873647
 20
2.19982835390437
 30
0.0
 11
5.52247847873647
 21
2.00297796020358
 31
0.0
  0
LINE
  8
3
  6
CONTINUOUS
 62
3
 10
5.52247847873647
 20
2.00297796020358
 30
0.0
 11
5.27247847873647
 21
2.00297796020358
 31
0.0
  0
LINE
  8
3
  6
CONTINUOUS
 62
3
 10
5.27247847873647
 20
2.00297796020358
 30
0.0
 11
5.27247847873647
 21
1.88486772398311
 31
0.0
  0
LINE
  8
3
  6
CONTINUOUS
 62
3
 10
5.27247847873647
 20
1.88486772398311
 30
0.0
 11
3.26952572283099
 21
1.88486772398311
 31
0.0
  0
LINE
  8
3
  6
CONTINUOUS
 62
3
 10
3.26952572283099
 20
1.88486772398311
 30
0.0
 11
3.26952572283099
 21
2.00297796020358
 31
0.0
  0
LINE
  8
3
  6
CONTINUOUS
 62
3
 10
3.26952572283099
 20
2.00297796020358
 30
0.0
 11
3.01952572283099
 21
2.00297796020358
 31
0.0
  0
LINE
  8
3
  6
CONTINUOUS
 62
3
 10
2.40736668453543
 20
0.888123359580051
 30
0.0
 11
2.40736668453543
 21
0.721456692913386
 31
0.0
  0
LINE
  8
3
  6
CONTINUOUS
 62
3
 10
2.40736668453543
 20
0.721456692913386
 30
0.0
 11
2.60421707823622
 21
0.721456692913386
 31
0.0
  0
LINE
  8
3
  6
CONTINUOUS
 62
3
 10
2.60421707823622
 20
0.721456692913386
 30
0.0
 11
2.60421707823622
 21
0.971456692913383
 31
0.0
  0
LINE
  8
3
  6
CONTINUOUS
 62
3
 10
2.60421707823622
 20
0.971456692913383
 30
0.0
 11
2.40736668453543
 21
0.971456692913383
 31
0.0
  0
LINE
  8
3
  6
CONTINUOUS
 62
3
 10
2.40736668453543
 20
0.971456692913383
 30
0.0
 11
2.40736668453543
 21
0.888123359580051
 31
0.0
  0
LINE
  8
3
  6
CONTINUOUS
 62
3
 10
0.56496062992126
 20
0.908956692913384
 30
0.0
 11
0.56496062992126
 21
0.971456692913383
 31
0.0
  0
LINE
  8
3
  6
CONTINUOUS
 62
3
 10
0.56496062992126
 20
0.971456692913383
 30
0.0
 11
0.368110236220471
 21
0.971456692913383
 31
0.0
  0
LINE
  8
3
  6
CONTINUOUS
 62
3
 10
0.368110236220471
 20
0.971456692913383
 30
0.0
 11
0.368110236220471
 21
0.721456692913386
 31
0.0
  0
LINE
  8
3
  6
CONTINUOUS
 62
3
 10
0.368110236220471
 20
0.721456692913386
 30
0.0
 11
0.56496062992126
 21
0.721456692913386
 31
0.0
  0
LINE
  8
3
  6
CONTINUOUS
 62
3
 10
0.56496062992126
 20
0.721456692913386
 30
0.0
 11
0.56496062992126
 21
0.908956692913384
 31
0.0
  0
LINE
  8
3
  6
CONTINUOUS
 62
3
 10
1.34409912248753
 20
1.5748031496063
 30
0.0
 11
1.31568621553937
 21
1.5748031496063
 31
0.0
  0
ARC
  8
3
  6
CONTINUOUS
 62
3
 10
1.48616365722835
 20
0.846456692913383
 30
0.0
 40
0.748031496062991
 50
103.1735511073
 51
256.8264488927
  0
LINE
  8
3
  6
CONTINUOUS
 62
3
 10
1.31568621553937
 20
0.118110236220471
 30
0.0
 11
1.65664109891732
 21
0.118110236220471
 31
0.0
  0
ARC
  8
3
  6
CONTINUOUS
 62
3
 10
1.48616365722835
 20
0.846456692913384
 30
0.0
 40
0.748031496062991
 50
283.1735511073
 51
76.8264488927
  0
LINE
  8
3
  6
CONTINUOUS
 62
3
 10
1.65664109891732
 20
1.5748031496063
 30
0.0
 11
1.34409912248753
 21
1.5748031496063
 31
0.0
  0
ARC
  8
3
  6
CONTINUOUS
 62
3
 10
1.30682441354329
 20
1.65354330711892
 30
0.0
 40
0.0393700787078444
 50
89.9999999999858
 51
96.2639527250513
  0
LINE
  8
3
  6
CONTINUOUS
 62
3
 10
1.3068244135433
 20
1.69291338582677
 30
0.0
 11
1.66550290091339
 21
1.69291338582677
 31
0.0
  0
ARC
  8
3
  6
CONTINUOUS
 62
3
 10
1.66550290091339
 20
1.65354330708661
 30
0.0
 40
0.0393700787401549
 50
77.4720945600972
 51
89.9999999999974
  0
ARC
  8
3
  6
CONTINUOUS
 62
3
 10
1.48616365722834
 20
0.846456692913395
 30
0.0
 40
0.866141732283463
 50
24.4493639951994
 51
77.4720945600994
  0
ARC
  8
3
  6
CONTINUOUS
 62
3
 10
2.45383452277165
 20
1.28641732283464
 30
0.0
 40
0.196850393700783
 50
204.449363995198
 51
269.999999999998
  0
LINE
  8
3
  6
CONTINUOUS
 62
3
 10
2.45383452277165
 20
1.08956692913386
 30
0.0
 11
2.68295723571654
 21
1.08956692913386
 31
0.0
  0
ARC
  8
3
  6
CONTINUOUS
 62
3
 10
2.68295723571654
 20
1.0501968503937
 30
0.0
 40
0.0393700787401575
 50
359.999999999997
 51
89.9999999999971
  0
LINE
  8
3
  6
CONTINUOUS
 62
3
 10
2.72232731445669
 20
1.0501968503937
 30
0.0
 11
2.72232731445669
 21
0.642716535433071
 31
0.0
  0
ARC
  8
3
  6
CONTINUOUS
 62
3
 10
2.68295723571654
 20
0.642716535433069
 30
0.0
 40
0.0393700787401574
 50
270.000000000002
 51
2.54528858000808E-12
  0
LINE
  8
3
  6
CONTINUOUS
 62
3
 10
2.68295723571654
 20
0.603346456692912
 30
0.0
 11
2.45383452277165
 21
0.603346456692912
 31
0.0
  0
ARC
  8
3
  6
CONTINUOUS
 62
3
 10
2.45383452277165
 20
0.406496062992128
 30
0.0
 40
0.196850393700783
 50
89.9999999999999
 51
155.5506360048
  0
ARC
  8
3
  6
CONTINUOUS
 62
3
 10
1.48616365722835
 20
0.846456692913386
 30
0.0
 40
0.866141732283463
 50
282.5279054399
 51
335.5506360048
  0
ARC
  8
3
  6
CONTINUOUS
 62
3
 10
1.66550290091339
 20
0.039370078740156
 30
0.0
 40
0.0393700787401551
 50
270.000000000001
 51
282.527905439901
  0
LINE
  8
3
  6
CONTINUOUS
 62
3
 10
1.66550290091339
 20
5.55111512312578E-17
 30
0.0
 11
1.3068244135433
 21
5.55111512312578E-17
 31
0.0
  0
ARC
  8
3
  6
CONTINUOUS
 62
3
 10
1.30682441354331
 20
0.0393700787401552
 30
0.0
 40
0.0393700787401552
 50
257.472094560098
 51
269.999999999998
  0
ARC
  8
3
  6
CONTINUOUS
 62
3
 10
1.48616365722835
 20
0.846456692913372
 30
0.0
 40
0.866141732283463
 50
204.449363995199
 51
257.472094560099
  0
ARC
  8
3
  6
CONTINUOUS
 62
3
 10
0.51849279168504
 20
0.406496062992124
 30
0.0
 40
0.196850393700789
 50
24.4493639952004
 51
90.0000000000003
  0
LINE
  8
3
  6
CONTINUOUS
 62
3
 10
0.518492791685038
 20
0.603346456692912
 30
0.0
 11
0.289370078740156
 21
0.603346456692912
 31
0.0
  0
ARC
  8
3
  6
CONTINUOUS
 62
3
 10
0.289370078740158
 20
0.642716535433069
 30
0.0
 40
0.0393700787401574
 50
179.999999999997
 51
269.999999999997
  0
LINE
  8
3
  6
CONTINUOUS
 62
3
 10
0.250000000000001
 20
0.642716535433071
 30
0.0
 11
0.250000000000001
 21
1.0501968503937
 31
0.0
  0
ARC
  8
3
  6
CONTINUOUS
 62
3
 10
0.289370078740158
 20
1.0501968503937
 30
0.0
 40
0.0393700787401574
 50
90.0000000000022
 51
180.000000000002
  0
LINE
  8
3
  6
CONTINUOUS
 62
3
 10
0.289370078740156
 20
1.08956692913386
 30
0.0
 11
0.518492791685038
 21
1.08956692913386
 31
0.0
  0
ARC
  8
3
  6
CONTINUOUS
 62
3
 10
0.518492791685044
 20
1.28641732283465
 30
0.0
 40
0.196850393700789
 50
269.999999999998
 51
335.550636004798
  0
ARC
  8
3
  6
CONTINUOUS
 62
3
 10
1.48616365722834
 20
0.846456692913375
 30
0.0
 40
0.866141732283463
 50
102.5279054399
 51
155.5506360048
  0
ARC
  8
3
  6
CONTINUOUS
 62
3
 10
1.30682441354158
 20
1.65354330708623
 30
0.0
 40
0.0393700787401551
 50
96.263952717393
 51
102.527905437343
  0
LINE
  8
3
  6
CONTINUOUS
 62
3
 10
0.274641733937664
 20
2.19982835390437
 30
0.0
 11
2.77759448984314
 21
2.19982835390437
 31
0.0
  0
LINE
  8
3
  6
CONTINUOUS
 62
3
 10
2.77759448984314
 20
2.19982835390437
 30
0.0
 11
2.77759448984314
 21
2.00297796020358
 31
0.0
  0
LINE
  8
3
  6
CONTINUOUS
 62
3
 10
2.77759448984314
 20
2.00297796020358
 30
0.0
 11
2.52759448984314
 21
2.00297796020358
 31
0.0
  0
LINE
  8
3
  6
CONTINUOUS
 62
3
 10
2.52759448984314
 20
2.00297796020358
 30
0.0
 11
2.52759448984314
 21
1.88486772398311
 31
0.0
  0
LINE
  8
3
  6
CONTINUOUS
 62
3
 10
2.52759448984314
 20
1.88486772398311
 30
0.0
 11
0.524641733937664
 21
1.88486772398311
 31
0.0
  0
LINE
  8
3
  6
CONTINUOUS
 62
3
 10
0.524641733937664
 20
1.88486772398311
 30
0.0
 11
0.524641733937664
 21
2.00297796020358
 31
0.0
  0
LINE
  8
3
  6
CONTINUOUS
 62
3
 10
0.524641733937664
 20
2.00297796020358
 30
0.0
 11
0.274641733937664
 21
2.00297796020358
 31
0.0
  0
LINE
  8
3
  6
CONTINUOUS
 62
3
 10
0.274641733937664
 20
2.00297796020358
 30
0.0
 11
0.274641733937664
 21
2.19982835390437
 31
0.0
  0
LINE
  8
9
  6
CONTINUOUS
 62
9
 10
5.27713170112648
 20
0.789409116334052
 30
0.0
 11
5.15225067342875
 21
0.783956692913385
 31
0.0
  0
LINE
  8
9
  6
CONTINUOUS
 62
9
 10
5.15225067342875
 20
0.783956692913385
 30
0.0
 11
5.20220308450784
 21
0.781775723545118
 31
0.0
  0
LINE
  8
9
  6
CONTINUOUS
 62
9
 10
3.66401625593242
 20
0.655850657210774
 30
0.0
 11
3.5246527717282
 21
0.600372559997005
 31
0.0
  0
LINE
  8
9
  6
CONTINUOUS
 62
9
 10
3.5246527717282
 20
0.600372559997005
 30
0.0
 11
3.57254223800845
 21
0.614746112772623
 31
0.0
  0
LINE
  8
9
  6
CONTINUOUS
 62
9
 10
3.23787525281152
 20
0.789409116334052
 30
0.0
 11
3.11299422511379
 21
0.783956692913385
 31
0.0
  0
LINE
  8
9
  6
CONTINUOUS
 62
9
 10
3.11299422511379
 20
0.783956692913385
 30
0.0
 11
3.16294663619288
 21
0.781775723545118
 31
0.0
  0
LINE
  8
9
  6
CONTINUOUS
 62
9
 10
2.90507668685235
 20
0.504286085251588
 30
0.0
 11
3.00641521798229
 21
0.614877685784476
 31
0.0
  0
LINE
  8
9
  6
CONTINUOUS
 62
9
 10
3.00641521798229
 20
0.614877685784476
 30
0.0
 11
2.96955135114558
 21
0.581098175399557
 31
0.0
  0
LINE
  8
9
  6
CONTINUOUS
 62
9
 10
3.01952572283099
 20
1.85297796020358
 30
0.0
 11
3.01952572283099
 21
2.00297796020358
 31
0.0
  0
LINE
  8
9
  6
CONTINUOUS
 62
9
 10
3.01952572283099
 20
2.00297796020358
 30
0.0
 11
2.96952572283099
 21
2.00297796020358
 31
0.0
  0
LINE
  8
9
  6
CONTINUOUS
 62
9
 10
2.53224771223316
 20
0.893575783000718
 30
0.0
 11
2.40736668453543
 21
0.888123359580051
 31
0.0
  0
LINE
  8
9
  6
CONTINUOUS
 62
9
 10
2.40736668453543
 20
0.888123359580051
 30
0.0
 11
2.45731909561452
 21
0.885942390211784
 31
0.0
  0
LINE
  8
9
  6
CONTINUOUS
 62
9
 10
0.440079602223529
 20
0.903504269492717
 30
0.0
 11
0.56496062992126
 21
0.908956692913384
 31
0.0
  0
LINE
  8
9
  6
CONTINUOUS
 62
9
 10
0.56496062992126
 20
0.908956692913384
 30
0.0
 11
0.515008218842167
 21
0.911137662281651
 31
0.0
  0
LINE
  8
9
  6
CONTINUOUS
 62
9
 10
1.35064203059233
 20
1.42494591636902
 30
0.0
 11
1.34409912248753
 21
1.5748031496063
 31
0.0
  0
LINE
  8
9
  6
CONTINUOUS
 62
9
 10
1.34409912248753
 20
1.5748031496063
 30
0.0
 11
1.34191815311926
 21
1.52485073852721
 31
0.0
  0
LINE
  8
9
  6
CONTINUOUS
 62
9
 10
1.27967417552156
 20
1.84092700386929
 30
0.0
 11
1.30252878578276
 21
1.69267833847965
 31
0.0
  0
LINE
  8
9
  6
CONTINUOUS
 62
9
 10
1.30252878578276
 20
1.69267833847965
 30
0.0
 11
1.29924647944084
 21
1.7425704868106
 31
0.0
  0
LINE
  8
9
  6
CONTINUOUS
 62
9
 10
0.124641733937664
 20
2.19982835390437
 30
0.0
 11
0.274641733937664
 21
2.19982835390437
 31
0.0
  0
LINE
  8
9
  6
CONTINUOUS
 62
9
 10
0.274641733937664
 20
2.19982835390437
 30
0.0
 11
0.274641733937664
 21
2.24982835390437
 31
0.0
  0
ENDSEC
  0
EOF
