  0
SECTION
  2
HEADER
  9
$ACADVER
  1
AC1003
  9
$EXTMIN
 10
0.571476199503747
 20
3.19925915759359
  9
$EXTMAX
 10
8.55378241828721
 20
0.600833960741674
  9
$INSUNITS
 70
1
  9
$INSBASE
 10
4.56262930889548
 20
1.90004655916763
999
Created with OMAX LAYOUT for Windows. (www.omax.com) 1/17/2023
  0
ENDSEC
  0
SECTION
  2
TABLES
  0
TABLE
  2
LAYER
 70
    10
  0
LAYER
  2
0
 70
     0
 62
     7
  6
CONTINUOUS
  0
LAYER
  2
1
 70
     0
 62
     7
  6
CONTINUOUS
  0
LAYER
  2
2
 70
     0
 62
     7
  6
CONTINUOUS
  0
LAYER
  2
3
 70
     0
 62
     7
  6
CONTINUOUS
  0
LAYER
  2
4
 70
     0
 62
     7
  6
CONTINUOUS
  0
LAYER
  2
5
 70
     0
 62
     7
  6
CONTINUOUS
  0
LAYER
  2
6
 70
     0
 62
     7
  6
CONTINUOUS
  0
LAYER
  2
7
 70
     0
 62
     7
  6
CONTINUOUS
  0
LAYER
  2
8
 70
     0
 62
     7
  6
CONTINUOUS
  0
LAYER
  2
9
 70
     0
 62
     7
  6
CONTINUOUS
  0
LAYER
  2
10
 70
     0
 62
     7
  6
CONTINUOUS
  0
LAYER
  2
11
 70
     0
 62
     7
  6
CONTINUOUS
  0
LAYER
  2
12
 70
     0
 62
     7
  6
CONTINUOUS
  0
LAYER
  2
13
 70
     0
 62
     7
  6
CONTINUOUS
  0
LAYER
  2
14
 70
     0
 62
     7
  6
CONTINUOUS
  0
LAYER
  2
15
 70
     0
 62
     7
  6
CONTINUOUS
  0
LAYER
  2
16
 70
     0
 62
     7
  6
CONTINUOUS
  0
LAYER
  2
17
 70
     0
 62
     7
  6
CONTINUOUS
  0
LAYER
  2
18
 70
     0
 62
     7
  6
CONTINUOUS
  0
LAYER
  2
19
 70
     0
 62
     7
  6
CONTINUOUS
  0
LAYER
  2
20
 70
     0
 62
     7
  6
CONTINUOUS
  0
LAYER
  2
21
 70
     0
 62
     7
  6
CONTINUOUS
  0
LAYER
  2
22
 70
     0
 62
     7
  6
CONTINUOUS
  0
LAYER
  2
23
 70
     0
 62
     7
  6
CONTINUOUS
  0
LAYER
  2
24
 70
     0
 62
     7
  6
CONTINUOUS
  0
LAYER
  2
25
 70
     0
 62
     7
  6
CONTINUOUS
  0
LAYER
  2
26
 70
     0
 62
     7
  6
CONTINUOUS
  0
LAYER
  2
27
 70
     0
 62
     7
  6
CONTINUOUS
  0
LAYER
  2
28
 70
     0
 62
     7
  6
CONTINUOUS
  0
LAYER
  2
29
 70
     0
 62
     7
  6
CONTINUOUS
  0
LAYER
  2
30
 70
     0
 62
     7
  6
CONTINUOUS
  0
LAYER
  2
31
 70
     0
 62
     7
  6
CONTINUOUS
  0
ENDTAB
  0
ENDSEC
  0
SECTION
  2
ENTITIES
  0
LINE
  8
0
  6
CONTINUOUS
 62
0
 10
0.571476199503747
 20
0.600833960741675
 30
0.0
 11
1.41680345489351
 21
0.600833960741675
 31
0.0
  0
ARC
  8
0
  6
CONTINUOUS
 62
0
 10
1.41680345489353
 20
1.0339048268834
 30
0.0
 40
0.433070866141728
 50
269.999999999998
 51
294.999999999998
  0
LINE
  8
0
  6
CONTINUOUS
 62
0
 10
1.59982711155099
 20
0.641409328560571
 30
0.0
 11
2.01680464160611
 21
0.835849144103876
 31
0.0
  0
ARC
  8
0
  6
CONTINUOUS
 62
0
 10
2.1998282982636
 20
0.443353645781036
 30
0.0
 40
0.433070866141736
 50
90.0000000000002
 51
115
  0
LINE
  8
0
  6
CONTINUOUS
 62
0
 10
2.1998282982636
 20
0.876424511922771
 30
0.0
 11
8.22902289186595
 21
0.876424511922771
 31
0.0
  0
LINE
  8
0
  6
CONTINUOUS
 62
0
 10
8.22902289186595
 20
0.876424511922771
 30
0.0
 11
8.55378241828721
 21
1.06392451192277
 31
0.0
  0
LINE
  8
0
  6
CONTINUOUS
 62
0
 10
8.55378241828721
 20
1.06392451192277
 30
0.0
 11
7.9346651758817
 21
2.13626703160782
 31
0.0
  0
LINE
  8
0
  6
CONTINUOUS
 62
0
 10
7.9346651758817
 20
2.13626703160782
 30
0.0
 11
2.97305100265335
 21
2.13626703160782
 31
0.0
  0
LINE
  8
0
  6
CONTINUOUS
 62
0
 10
2.97305100265335
 20
2.13626703160782
 30
0.0
 11
2.64680742367304
 21
2.22426606521805
 31
0.0
  0
ARC
  8
0
  6
CONTINUOUS
 62
0
 10
2.6775664715943
 20
2.33830074797001
 30
0.0
 40
0.118110236220467
 50
197.626368142196
 51
254.904623081596
  0
ARC
  8
0
  6
CONTINUOUS
 62
0
 10
1.33919273493682
 20
1.91306557715899
 30
0.0
 40
1.28619358043423
 50
17.6263681421999
 51
90
  0
ARC
  8
0
  6
CONTINUOUS
 62
0
 10
0.884980202940746
 20
1.98203101476925
 30
0.0
 40
1.29921259842519
 50
28.2574138959991
 51
69.536781206199
  0
ARC
  8
0
  6
CONTINUOUS
 62
0
 10
1.92532998805887
 20
2.54120461447002
 30
0.0
 40
0.118110236220475
 50
254.904623081599
 51
28.2574138959997
  0
LINE
  8
0
  6
CONTINUOUS
 62
0
 10
1.89457094013761
 20
2.42716993171805
 30
0.0
 11
1.80794860446832
 21
2.45053493356844
 31
0.0
  0
ARC
  8
0
  6
CONTINUOUS
 62
0
 10
1.65415336485807
 20
1.88036151979679
 30
0.0
 40
0.590551181102361
 50
74.9046230816002
 51
230
  0
LINE
  8
0
  6
CONTINUOUS
 62
0
 10
1.27455438275966
 20
1.42797306913537
 30
0.0
 11
1.44271380822422
 21
1.28687055724954
 31
0.0
  0
ARC
  8
0
  6
CONTINUOUS
 62
0
 10
1.36679401180297
 20
1.19639286711963
 30
0.0
 40
0.118110236220473
 50
299.999999999996
 51
49.9999999999962
  0
LINE
  8
0
  6
CONTINUOUS
 62
0
 10
1.4258491299132
 20
1.09410640210388
 30
0.0
 11
0.571476199503747
 21
0.600833960741675
 31
0.0
  0
LINE
  8
0
  6
CONTINUOUS
 62
0
 10
2.97305100265335
 20
1.46697569302513
 30
0.0
 11
2.97305100265335
 21
1.57770706311175
 31
0.0
  0
ARC
  8
0
  6
CONTINUOUS
 62
0
 10
2.77620060895256
 20
1.46697569302513
 30
0.0
 40
0.196850393700785
 50
269.999999999999
 51
359.999999999999
  0
LINE
  8
0
  6
CONTINUOUS
 62
0
 10
2.16224378493682
 20
1.27012529932435
 30
0.0
 11
2.77620060895256
 21
1.27012529932435
 31
0.0
  0
ARC
  8
0
  6
CONTINUOUS
 62
0
 10
2.16224378493682
 20
1.38823553554482
 30
0.0
 40
0.118110236220476
 50
179.7941379409
 51
270
  0
ARC
  8
0
  6
CONTINUOUS
 62
0
 10
2.24098343417304
 20
1.38795262507239
 30
0.0
 40
0.196850393700787
 50
152.452311540802
 51
179.794137940902
  0
LINE
  8
0
  6
CONTINUOUS
 62
0
 10
2.21923922868485
 20
1.7719018274897
 30
0.0
 11
2.06645071702736
 21
1.47899332007632
 31
0.0
  0
ARC
  8
0
  6
CONTINUOUS
 62
0
 10
2.39377194583051
 20
1.68086113248577
 30
0.0
 40
0.196850393700791
 50
74.9046230815997
 51
152.4523115408
  0
LINE
  8
0
  6
CONTINUOUS
 62
0
 10
2.82746568882264
 20
1.7677648677023
 30
0.0
 11
2.4450370257006
 21
1.87091893707632
 31
0.0
  0
ARC
  8
0
  6
CONTINUOUS
 62
0
 10
2.77620060895257
 20
1.57770706311176
 30
0.0
 40
0.19685039370078
 50
359.999999999998
 51
74.9046230815982
  0
ARC
  8
0
  6
CONTINUOUS
 62
0
 10
1.98720374086989
 20
2.0921485055645
 30
0.0
 40
0.0669291338582667
 50
179.999999999999
 51
359.999999999999
  0
ARC
  8
0
  6
CONTINUOUS
 62
0
 10
1.98720374086989
 20
2.0921485055645
 30
0.0
 40
0.0669291338582667
 50
359.999999999999
 51
180
  0
ARC
  8
0
  6
CONTINUOUS
 62
0
 10
1.67104108671634
 20
1.48603794054483
 30
0.0
 40
0.0669291338582683
 50
208.366496508906
 51
309.746459030149
  0
ARC
  8
0
  6
CONTINUOUS
 62
0
 10
1.67104108671634
 20
1.48603794054483
 30
0.0
 40
0.0669291338582677
 50
309.746459030148
 51
51.1264215513898
  0
ARC
  8
0
  6
CONTINUOUS
 62
0
 10
1.65415336485807
 20
1.5063457717653
 30
0.0
 40
0.0669291338582642
 50
28.3664965088929
 51
129.746459030147
  0
ARC
  8
0
  6
CONTINUOUS
 62
0
 10
1.65415336485808
 20
1.5063457717653
 30
0.0
 40
0.0669291338582699
 50
129.746459030149
 51
231.126421551405
  0
ARC
  8
0
  6
CONTINUOUS
 62
0
 10
1.30421526698799
 20
2.06289811328104
 30
0.0
 40
0.0669291338582667
 50
179.999999999999
 51
359.999999999999
  0
ARC
  8
0
  6
CONTINUOUS
 62
0
 10
1.30421526698799
 20
2.06289811328105
 30
0.0
 40
0.0669291338582667
 50
359.999999999999
 51
180
  0
ARC
  8
0
  6
CONTINUOUS
 62
0
 10
1.16202738060611
 20
1.88036151979679
 30
0.0
 40
0.0669291338582738
 50
179.999999999999
 51
359.999999999999
  0
ARC
  8
0
  6
CONTINUOUS
 62
0
 10
1.16202738060611
 20
1.88036151979679
 30
0.0
 40
0.0669291338582738
 50
359.999999999999
 51
180
  0
ARC
  8
0
  6
CONTINUOUS
 62
0
 10
1.65415336485807
 20
2.25437726782828
 30
0.0
 40
0.0669291338582667
 50
179.999999999999
 51
359.999999999999
  0
ARC
  8
0
  6
CONTINUOUS
 62
0
 10
1.65415336485807
 20
2.25437726782828
 30
0.0
 40
0.0669291338582667
 50
359.999999999999
 51
180
  0
ARC
  8
0
  6
CONTINUOUS
 62
0
 10
2.14627934911004
 20
1.88036151979679
 30
0.0
 40
0.0669291338582667
 50
179.999999999999
 51
359.999999999999
  0
ARC
  8
0
  6
CONTINUOUS
 62
0
 10
2.14627934911004
 20
1.88036151979679
 30
0.0
 40
0.0669291338582667
 50
359.999999999999
 51
180
  0
ARC
  8
0
  6
CONTINUOUS
 62
0
 10
3.16055100265335
 20
1.23075522058419
 30
0.0
 40
0.122047244094489
 50
179.999999999999
 51
359.999999999999
  0
ARC
  8
0
  6
CONTINUOUS
 62
0
 10
3.16055100265335
 20
1.23075522058419
 30
0.0
 40
0.122047244094489
 50
359.999999999999
 51
180
  0
ARC
  8
0
  6
CONTINUOUS
 62
0
 10
3.16055100265335
 20
1.78193632294639
 30
0.0
 40
0.122047244094489
 50
179.999999999999
 51
359.999999999999
  0
ARC
  8
0
  6
CONTINUOUS
 62
0
 10
3.16055100265335
 20
1.78193632294639
 30
0.0
 40
0.122047244094489
 50
359.999999999999
 51
180
  0
ARC
  8
0
  6
CONTINUOUS
 62
0
 10
8.2142373007439
 20
1.27703390696608
 30
0.0
 40
0.122047244094489
 50
179.999999999999
 51
359.999999999999
  0
ARC
  8
0
  6
CONTINUOUS
 62
0
 10
8.2142373007439
 20
1.27703390696608
 30
0.0
 40
0.122047244094489
 50
359.999999999999
 51
180
  0
ARC
  8
0
  6
CONTINUOUS
 62
0
 10
7.94945076700374
 20
1.7356576365645
 30
0.0
 40
0.122047244094482
 50
179.999999999999
 51
359.999999999999
  0
ARC
  8
0
  6
CONTINUOUS
 62
0
 10
7.94945076700374
 20
1.73565763656451
 30
0.0
 40
0.122047244094482
 50
359.999999999999
 51
180
  0
ARC
  8
0
  6
CONTINUOUS
 62
0
 10
3.81147134767303
 20
1.82130640168656
 30
0.0
 40
0.0669291338582667
 50
179.999999999999
 51
359.999999999999
  0
ARC
  8
0
  6
CONTINUOUS
 62
0
 10
3.81147134767303
 20
1.82130640168656
 30
0.0
 40
0.0669291338582667
 50
359.999999999999
 51
180
  0
ARC
  8
0
  6
CONTINUOUS
 62
0
 10
3.53870744096831
 20
1.34886545680466
 30
0.0
 40
0.0669291338582738
 50
179.999999999999
 51
359.999999999999
  0
ARC
  8
0
  6
CONTINUOUS
 62
0
 10
3.53870744096831
 20
1.34886545680466
 30
0.0
 40
0.0669291338582738
 50
359.999999999999
 51
180
  0
ARC
  8
0
  6
CONTINUOUS
 62
0
 10
3.81147134767304
 20
1.5063457717653
 30
0.0
 40
0.15748031496063
 50
179.999999999999
 51
359.999999999999
  0
ARC
  8
0
  6
CONTINUOUS
 62
0
 10
3.81147134767304
 20
1.5063457717653
 30
0.0
 40
0.15748031496063
 50
359.999999999999
 51
180
  0
ARC
  8
0
  6
CONTINUOUS
 62
0
 10
4.08423525437382
 20
1.34886545680466
 30
0.0
 40
0.0669291338582667
 50
179.999999999999
 51
359.999999999999
  0
ARC
  8
0
  6
CONTINUOUS
 62
0
 10
4.08423525437382
 20
1.34886545680466
 30
0.0
 40
0.0669291338582667
 50
359.999999999999
 51
180
  0
ARC
  8
0
  6
CONTINUOUS
 62
0
 10
7.46841844622815
 20
1.34886545680466
 30
0.0
 40
0.0669291338582667
 50
179.999999999999
 51
359.999999999999
  0
ARC
  8
0
  6
CONTINUOUS
 62
0
 10
7.46841844622815
 20
1.34886545680466
 30
0.0
 40
0.0669291338582667
 50
359.999999999999
 51
180
  0
ARC
  8
0
  6
CONTINUOUS
 62
0
 10
7.19565453952343
 20
1.82130640168656
 30
0.0
 40
0.0669291338582667
 50
179.999999999999
 51
359.999999999999
  0
ARC
  8
0
  6
CONTINUOUS
 62
0
 10
7.19565453952343
 20
1.82130640168656
 30
0.0
 40
0.0669291338582667
 50
359.999999999999
 51
180
  0
ARC
  8
0
  6
CONTINUOUS
 62
0
 10
6.92289063282264
 20
1.34886545680466
 30
0.0
 40
0.0669291338582667
 50
179.999999999999
 51
359.999999999999
  0
ARC
  8
0
  6
CONTINUOUS
 62
0
 10
6.92289063282264
 20
1.34886545680466
 30
0.0
 40
0.0669291338582667
 50
359.999999999999
 51
180
  0
ARC
  8
0
  6
CONTINUOUS
 62
0
 10
7.19565453952344
 20
1.5063457717653
 30
0.0
 40
0.15748031496063
 50
179.999999999999
 51
359.999999999999
  0
ARC
  8
0
  6
CONTINUOUS
 62
0
 10
7.19565453952344
 20
1.5063457717653
 30
0.0
 40
0.15748031496063
 50
359.999999999999
 51
180
  0
ARC
  8
0
  6
CONTINUOUS
 62
0
 10
5.94898440812579
 20
1.06092417731647
 30
0.0
 40
0.0669291338582667
 50
179.999999999999
 51
359.999999999999
  0
ARC
  8
0
  6
CONTINUOUS
 62
0
 10
5.94898440812579
 20
1.06092417731647
 30
0.0
 40
0.0669291338582667
 50
359.999999999999
 51
180
  0
ARC
  8
0
  6
CONTINUOUS
 62
0
 10
5.94898440812579
 20
1.95176736621411
 30
0.0
 40
0.0669291338582667
 50
179.999999999999
 51
359.999999999999
  0
ARC
  8
0
  6
CONTINUOUS
 62
0
 10
5.94898440812579
 20
1.95176736621411
 30
0.0
 40
0.0669291338582667
 50
359.999999999999
 51
180
  0
ARC
  8
0
  6
CONTINUOUS
 62
0
 10
5.05814121922816
 20
1.06092417731647
 30
0.0
 40
0.0669291338582667
 50
179.999999999999
 51
359.999999999999
  0
ARC
  8
0
  6
CONTINUOUS
 62
0
 10
5.05814121922816
 20
1.06092417731647
 30
0.0
 40
0.0669291338582667
 50
359.999999999999
 51
180
  0
ARC
  8
0
  6
CONTINUOUS
 62
0
 10
5.05814121922816
 20
1.95176736621411
 30
0.0
 40
0.0669291338582667
 50
179.999999999999
 51
359.999999999999
  0
ARC
  8
0
  6
CONTINUOUS
 62
0
 10
5.05814121922816
 20
1.95176736621411
 30
0.0
 40
0.0669291338582667
 50
359.999999999999
 51
180
  0
ARC
  8
0
  6
CONTINUOUS
 62
0
 10
5.50356281367698
 20
1.50634577176529
 30
0.0
 40
0.49212598425197
 50
179.999999999999
 51
359.999999999999
  0
ARC
  8
0
  6
CONTINUOUS
 62
0
 10
5.50356281367698
 20
1.5063457717653
 30
0.0
 40
0.49212598425197
 50
359.999999999999
 51
180
  0
ARC
  8
0
  6
CONTINUOUS
 62
0
 10
1.65415336485807
 20
1.88036151979678
 30
0.0
 40
0.196850393700785
 50
179.999999999999
 51
359.999999999999
  0
ARC
  8
0
  6
CONTINUOUS
 62
0
 10
1.65415336485807
 20
1.88036151979679
 30
0.0
 40
0.196850393700785
 50
359.999999999999
 51
180
  0
ENDSEC
  0
EOF
